<?xml version="1.0" standalone="no"?>
<!DOCTYPE svg PUBLIC "-//W3C//DTD SVG 20010904//EN"
 "http://www.w3.org/TR/2001/REC-SVG-20010904/DTD/svg10.dtd">
<svg version="1.0" xmlns="http://www.w3.org/2000/svg"
 width="300.000000pt" height="300.000000pt" viewBox="0 0 300.000000 300.000000"
 preserveAspectRatio="xMidYMid meet">
<metadata>
Created by potrace 1.10, written by Peter Selinger 2001-2011
</metadata>
<g transform="translate(0.000000,300.000000) scale(0.100000,-0.100000)"
fill="#000000" stroke="none">
<path d="M1425 2879 c-43 -12 -102 -65 -127 -112 -33 -63 -31 -149 5 -210 27
-45 97 -107 121 -107 8 0 10 -45 8 -146 -2 -94 1 -151 7 -157 8 -8 11 36 11
145 l0 156 -42 33 c-86 66 -111 108 -111 185 0 66 34 128 91 169 38 26 52 30
110 30 57 0 74 -4 112 -29 58 -36 92 -88 98 -147 8 -84 -32 -163 -101 -202
-21 -11 -40 -30 -43 -42 -7 -27 -11 -254 -6 -283 4 -18 7 -20 14 -10 4 7 8 78
7 158 -1 81 2 145 7 145 24 0 86 48 111 85 32 50 44 149 23 203 -45 114 -172
173 -295 136z"/>
<path d="M1439 2731 c-46 -46 -35 -117 21 -146 42 -22 83 -12 116 28 75 89
-54 200 -137 118z m111 -23 c27 -29 25 -54 -6 -84 -19 -20 -31 -24 -51 -19
-52 13 -69 69 -33 105 26 26 64 25 90 -2z"/>
<path d="M477 2125 c-94 -33 -126 -97 -127 -247 0 -66 4 -108 10 -108 6 0 10
41 10 103 1 147 27 199 120 232 37 13 106 15 429 15 212 0 414 0 449 0 40 0
61 4 57 10 -4 6 -167 10 -458 10 -357 -1 -460 -4 -490 -15z"/>
<path d="M1580 2130 c0 -11 -11 -11 491 -10 378 0 451 -6 499 -40 51 -36 62
-82 69 -292 1 -10 5 -18 11 -18 6 0 8 45 5 117 -6 138 -20 173 -86 218 l-44
30 -472 3 c-322 2 -473 -1 -473 -8z"/>
<path d="M903 1816 c-89 -29 -154 -87 -200 -176 -24 -48 -27 -67 -28 -145 0
-80 3 -96 30 -148 37 -74 109 -139 183 -167 77 -29 195 -25 267 10 250 121
252 479 3 606 -64 33 -186 43 -255 20z m183 -10 c82 -16 179 -97 214 -179 53
-121 30 -255 -58 -349 -143 -153 -378 -137 -495 34 -46 66 -57 104 -57 189 0
100 45 188 128 251 76 58 160 75 268 54z"/>
<path d="M931 1709 c-18 -6 -55 -32 -81 -58 -39 -39 -50 -59 -61 -105 -41
-187 145 -335 316 -251 94 45 138 128 124 231 -14 106 -113 195 -215 193 -27
0 -64 -5 -83 -10z m169 -39 c79 -40 125 -140 101 -222 -30 -101 -103 -153
-208 -146 -69 4 -97 20 -146 81 -73 89 -34 233 78 291 43 22 127 20 175 -4z"/>
<path d="M1882 1812 c-66 -24 -118 -65 -160 -126 -147 -218 -6 -511 254 -524
175 -10 316 95 353 263 34 151 -43 306 -188 377 -63 31 -185 36 -259 10z m251
-25 c70 -33 124 -89 160 -165 27 -57 29 -71 25 -140 -10 -158 -108 -271 -263
-303 -182 -36 -363 106 -373 294 -5 82 9 137 51 198 42 62 86 97 155 125 73
30 170 26 245 -9z"/>
<path d="M1936 1713 c-43 -12 -98 -56 -126 -100 -54 -84 -49 -173 13 -254 112
-147 341 -103 392 76 15 50 16 67 6 105 -28 106 -103 170 -205 176 -34 1 -70
0 -80 -3z m151 -40 c73 -34 121 -125 109 -208 -8 -53 -35 -96 -82 -131 -34
-26 -45 -29 -115 -29 -71 0 -80 2 -116 31 -105 84 -109 228 -7 312 61 50 136
59 211 25z"/>
<path d="M205 1727 c-21 -12 -53 -42 -70 -65 l-30 -44 0 -506 0 -507 25 -43
c32 -57 92 -92 167 -99 l58 -5 0 646 0 646 -55 0 c-38 0 -67 -7 -95 -23z m114
-30 c10 -25 13 -1120 4 -1170 -4 -23 -9 -27 -37 -27 -40 0 -93 34 -123 79 -22
33 -23 41 -24 280 -1 613 1 743 15 770 19 37 48 61 93 77 53 18 62 17 72 -9z"/>
<path d="M2654 1734 c3 -9 6 -299 6 -646 l0 -631 56 6 c73 8 122 34 159 86
l30 43 3 491 c2 332 0 504 -8 529 -24 83 -102 138 -196 138 -47 0 -55 -3 -50
-16z m122 -33 c23 -10 54 -36 70 -57 l29 -37 0 -496 c0 -451 -2 -499 -17 -528
-24 -44 -72 -75 -124 -81 l-44 -5 -1 269 c-3 581 2 939 14 946 17 11 28 10 73
-11z"/>
<path d="M1483 1268 c-28 -34 -132 -258 -122 -263 5 -4 71 -7 147 -7 109 -1
138 2 140 13 4 21 -124 263 -141 267 -7 2 -19 -3 -24 -10z m80 -136 c26 -51
45 -97 42 -102 -9 -15 -196 -10 -202 6 -6 17 87 195 101 191 6 -1 33 -44 59
-95z"/>
<path d="M1356 694 c-154 -37 -352 -193 -280 -221 8 -3 50 11 92 30 126 59
221 82 342 81 119 0 201 -21 332 -81 42 -20 84 -33 92 -30 30 12 16 45 -39 94
-63 57 -154 105 -241 127 -76 20 -217 20 -298 0z m278 -11 c118 -27 313 -148
292 -182 -8 -12 -46 -6 -56 9 -6 9 -168 64 -233 79 -127 30 -318 2 -471 -69
-87 -41 -105 -29 -44 30 126 122 329 174 512 133z"/>
<path d="M352 334 c3 -109 6 -123 31 -161 15 -24 44 -51 67 -63 39 -20 54 -20
1056 -20 861 0 1020 3 1043 15 35 18 89 78 96 108 8 31 11 236 4 231 -3 -2 -8
-50 -11 -107 -6 -118 -19 -152 -75 -194 l-36 -28 -991 -3 c-545 -2 -1010 0
-1033 3 -52 7 -104 56 -121 113 -7 22 -12 78 -12 125 0 52 -4 89 -11 93 -8 5
-10 -27 -7 -112z"/>
</g>
</svg>
