<?xml version="1.0" standalone="no"?>
<!DOCTYPE svg PUBLIC "-//W3C//DTD SVG 20010904//EN"
 "http://www.w3.org/TR/2001/REC-SVG-20010904/DTD/svg10.dtd">
<svg version="1.0" xmlns="http://www.w3.org/2000/svg"
 width="534.000000pt" height="534.000000pt" viewBox="0 0 534.000000 534.000000"
 preserveAspectRatio="xMidYMid meet">
<metadata>
Created by potrace 1.16, written by Peter Selinger 2001-2019
</metadata>
<g transform="translate(0.000000,534.000000) scale(0.100000,-0.100000)"
fill="#000000" stroke="none">
<path d="M1795 3651 c-96 -25 -172 -92 -219 -190 -27 -58 -31 -79 -34 -173 -3
-82 0 -120 13 -162 28 -90 31 -91 224 -91 100 0 197 -6 244 -15 74 -13 78 -13
105 6 17 13 35 43 50 85 19 55 22 80 19 174 -3 93 -7 119 -29 167 -36 77 -106
150 -171 178 -56 24 -153 34 -202 21z"/>
<path d="M3395 3647 c-101 -34 -161 -88 -209 -187 -29 -62 -31 -71 -31 -185 0
-138 13 -195 56 -238 33 -33 17 -32 199 -7 43 6 128 8 200 4 122 -6 125 -6
147 17 37 41 56 129 51 243 -3 88 -8 110 -34 166 -58 121 -151 188 -272 196
-41 2 -83 -1 -107 -9z"/>
<path d="M1665 2068 c-63 -36 -60 -80 12 -158 113 -123 331 -261 502 -319 375
-128 808 -90 1132 100 165 96 339 252 339 304 0 38 -15 60 -49 74 -27 12 -39
8 -173 -58 -264 -130 -485 -189 -738 -198 -299 -10 -592 62 -899 223 -92 48
-96 49 -126 32z"/>
</g>
</svg>
