<?xml version="1.0" encoding="UTF-8" standalone="no"?>
<svg
   version="1.1"
   viewBox="0 0 1857 1790"
   width="1160.625"
   height="1118.75"
   id="svg92"
   sodipodi:docname="74e4a8390b821a2378a89919c4417817.svg"
   xmlns:inkscape="http://www.inkscape.org/namespaces/inkscape"
   xmlns:sodipodi="http://sodipodi.sourceforge.net/DTD/sodipodi-0.dtd"
   xmlns="http://www.w3.org/2000/svg"
   xmlns:svg="http://www.w3.org/2000/svg">
  <defs
     id="defs96" />
  <sodipodi:namedview
     id="namedview94"
     pagecolor="#ffffff"
     bordercolor="#666666"
     borderopacity="1.0"
     inkscape:pageshadow="2"
     inkscape:pageopacity="0.0"
     inkscape:pagecheckerboard="0" />
  <path
     d="m 893,0 h 72 l 38,2 36,3 50,6 47,8 37,8 40,10 40,12 35,12 31,12 28,12 20,9 29,14 28,15 24,14 24,15 24,16 14,10 15,11 18,14 11,9 13,11 11,9 9,9 8,7 40,40 7,8 10,11 9,11 14,17 10,13 13,18 12,17 13,20 13,21 15,27 12,23 8,16 12,26 16,40 10,28 12,39 9,34 9,43 6,33 6,46 4,47 1,18 1,36 v 29 l -1,38 -3,44 -4,38 -6,40 -7,36 -7,31 -8,30 -12,39 -11,31 -14,34 -13,29 -18,36 -14,24 -8,14 -11,17 -16,24 -13,18 -9,12 -12,15 -9,11 -12,14 -10,11 -7,8 -15,15 -5,6 -8,7 -17,17 -8,7 -10,9 -17,14 -14,11 -13,10 -18,13 -14,10 -29,19 -20,12 -19,11 -24,13 -23,12 -33,15 -28,12 -39,15 -46,15 -36,10 -42,10 -41,8 -45,7 -36,4 -39,3 -49,2 h -31 l -51,-2 -48,-4 -40,-5 -43,-7 -47,-10 -40,-10 -39,-12 -36,-12 -44,-17 -27,-12 -34,-16 -19,-10 -24,-13 -20,-12 -21,-13 -28,-19 -19,-14 -16,-12 -17,-14 -11,-9 -10,-9 -8,-7 -10,-9 -17,-16 -15,-15 -7,-8 -15,-16 -9,-11 -13,-15 -13,-17 -15,-20 -16,-23 -12,-19 -17,-28 -12,-23 -10,-19 -10,-21 -14,-32 -15,-40 -12,-37 -11,-41 -9,-39 -8,-47 -6,-47 -4,-50 -1,-22 v -83 l 2,-37 4,-44 6,-44 6,-35 9,-40 8,-31 9,-30 13,-38 11,-28 17,-38 8,-16 16,-31 13,-22 16,-26 21,-30 9,-12 13,-17 11,-13 9,-11 10,-11 7,-8 12,-13 32,-32 8,-7 11,-10 11,-9 13,-11 14,-11 18,-14 16,-11 20,-14 18,-11 16,-10 21,-12 29,-16 23,-11 16,-8 35,-15 31,-12 40,-14 33,-10 43,-11 40,-9 34,-6 33,-5 44,-5 41,-3 z"
     fill="#fdd034"
     id="path2" />
  <path
     d="m 893,0 h 72 l 38,2 36,3 50,6 47,8 37,8 40,10 40,12 35,12 31,12 28,12 20,9 29,14 28,15 24,14 24,15 24,16 14,10 15,11 18,14 11,9 13,11 11,9 9,9 8,7 40,40 7,8 10,11 9,11 14,17 10,13 13,18 12,17 13,20 13,21 15,27 12,23 8,16 12,26 16,40 10,28 12,39 9,34 9,43 6,33 6,46 4,47 1,18 1,36 v 29 l -1,38 -3,44 -4,38 -6,40 -7,36 -7,31 -8,30 -12,39 -11,31 -14,34 -13,29 -18,36 -14,24 -8,14 -11,17 -16,24 -13,18 -9,12 -12,15 -9,11 -12,14 -10,11 -7,8 -15,15 -5,6 -8,7 -17,17 -8,7 -10,9 -17,14 -14,11 -13,10 -18,13 -14,10 -29,19 -20,12 -19,11 -24,13 -23,12 -33,15 -28,12 -39,15 -46,15 -36,10 -42,10 -41,8 -45,7 -36,4 -39,3 -49,2 h -31 l -51,-2 -48,-4 -40,-5 -43,-7 -47,-10 -40,-10 -39,-12 -36,-12 -44,-17 -27,-12 -34,-16 -19,-10 -24,-13 -20,-12 -21,-13 -28,-19 -19,-14 -16,-12 -17,-14 -11,-9 -10,-9 -8,-7 -10,-9 -17,-16 -15,-15 -7,-8 -15,-16 -9,-11 -13,-15 -13,-17 -15,-20 -16,-23 -12,-19 -17,-28 -12,-23 -10,-19 -10,-21 -14,-32 -15,-40 -12,-37 -11,-41 -9,-39 -8,-47 -6,-47 -4,-50 -1,-22 v -83 l 2,-37 4,-44 6,-44 6,-35 9,-40 8,-31 9,-30 13,-38 11,-28 17,-38 8,-16 16,-31 13,-22 16,-26 21,-30 9,-12 13,-17 11,-13 9,-11 10,-11 7,-8 12,-13 32,-32 8,-7 11,-10 11,-9 13,-11 14,-11 18,-14 16,-11 20,-14 18,-11 16,-10 21,-12 29,-16 23,-11 16,-8 35,-15 31,-12 40,-14 33,-10 43,-11 40,-9 34,-6 33,-5 44,-5 41,-3 z m 24,24 -21,1 -15,1 -25,1 -11,1 -15,2 -18,4 -12,1 -14,3 -12,1 h -4 l -9,3 -9,1 -5,-1 -4,3 -9,2 -1,-1 -7,1 -5,3 -5,1 -3,-1 -7,3 -17,4 -10,4 -3,2 -6,-1 -10,5 -10,3 -10,2 -3,4 2,1 -3,1 v -3 l -6,1 v 2 h -7 l -4,3 -9,3 -5,3 -9,3 -5,2 -2,4 v -2 l -4,1 -4,2 3,1 -14,6 -6,3 -1,3 -14,4 -5,4 -16,8 -11,6 -10,4 -13,9 -10,6 -3,1 -3,3 -6,3 -15,10 -3,3 -5,3 -2,2 -5,2 -5,5 -7,6 -7,3 v 2 h -2 l -3,4 -5,2 -5,5 -6,4 -5,5 -5,2 -3,4 v 2 l -7,2 -9,8 -5,5 -6,5 -9,9 v 2 l -4,2 -8,7 -8,8 -4,5 -6,3 -2,6 -4,2 -5,3 -2,6 -5,2 -3,1 -6,9 -6,5 -6,8 -3,2 v 3 h -2 l -4,6 -5,5 -7,9 -4,4 v 2 l -3,1 v 2 l -4,2 -3,7 -5,4 -8,12 -6,8 -3,3 -8,13 -7,12 -5,4 -2,7 -4,4 -6,12 -5,6 -6,11 -6,8 -3,11 -4,2 1,2 -2,1 -1,6 -4,2 -3,7 -3,2 -3,9 -4,7 v 6 l -3,4 -1,-2 -5,11 -4,10 -5,8 -2,7 -5,11 -3,9 -4,10 -5,11 -7,20 -3,12 -1,1 -2,10 -5,11 -1,7 -3,10 -3,9 -2,3 -2,14 -3,12 -3,13 -3,12 -4,23 -1,3 -1,13 -3,15 -2,23 -2,18 -1,2 v 17 l -1,5 v 14 l -1,34 v 31 l 2,14 1,14 v 7 l 1,10 v 8 l 2,13 v 9 l 3,13 1,14 4,17 1,8 3,12 2,9 8,33 3,9 3,12 2,3 2,10 2,2 1,8 3,7 3,11 4,10 2,7 4,12 1,-2 h 3 l -2,8 6,13 5,14 h 2 l 1,8 6,11 3,7 2,5 7,11 3,8 5,9 3,7 8,14 8,13 3,4 2,5 5,5 4,7 9,14 7,11 4,4 5,9 7,8 9,14 9,11 1,2 h 2 v 2 h 2 l 2,5 8,10 2,3 h 2 l 2,5 5,6 10,10 9,10 4,6 14,15 13,13 5,4 4,6 5,2 1,3 6,4 5,5 4,3 h 2 v 2 h 2 l 2,4 7,7 9,7 6,4 4,4 8,7 10,7 6,4 3,5 18,11 5,3 h 2 l 2,4 10,5 3,4 10,5 4,4 6,3 2,3 10,5 9,8 7,3 10,7 4,3 5,3 4,5 2,6 h 3 v 3 h 2 v 2 l 30,11 41,13 40,11 40,9 36,7 32,5 30,4 43,4 47,2 h 55 l 44,-2 36,-3 42,-5 43,-7 50,-10 35,-9 42,-12 41,-14 34,-13 41,-18 29,-14 27,-14 13,-8 11,-6 20,-12 25,-16 23,-16 16,-12 13,-10 14,-11 6,-5 v -2 l 5,-2 7,-6 3,-3 v -2 l 4,-1 5,-5 v -2 l 5,-2 v -2 l 3,-1 v -2 l 3,-1 5,-5 8,-7 5,-6 4,-3 v -2 l 3,-1 9,-11 5,-4 4,-6 5,-5 11,-12 5,-5 3,-4 v -2 h 2 l 1,-4 h 2 l 6,-8 8,-10 4,-4 1,-3 2,-1 4,-7 11,-15 5,-10 v -2 h -2 l -3,6 -4,4 v 2 h -3 l -2,5 h -2 l 6,-11 8,-10 3,-7 4,-7 -1,-2 h 2 l 7,-13 2,-3 2,-7 6,-9 2,-8 2,-1 8,-16 11,-25 6,-14 5,-12 4,-11 3,-7 1,-9 5,-9 1,-7 3,-5 6,-18 2,-10 2,-5 4,-15 3,-9 4,-17 4,-14 3,-12 1,-13 2,-2 2,-9 1,-9 2,-14 1,-3 v -12 l 5,-25 1,-11 1,-7 1,-10 2,-5 -1,-1 -2,-14 h 2 l 2,-10 -2,-1 v -5 l 2,2 v -9 l -1,-10 v -15 l 1,-16 -1,-4 -3,-1 1,-7 h 2 l 1,-16 -3,-4 v -4 h 2 l -1,-3 -1,-1 1,-4 1,-5 -3,-2 -3,-20 -2,-15 -3,-25 -2,-14 -2,-13 -4,-17 -2,-6 -3,-10 -3,-16 -4,-14 -7,-29 -4,-12 -5,-17 -5,-13 -5,-12 -3,-10 -3,-7 -3,-10 -4,-9 -3,-7 -8,-23 -8,-15 -18,-36 -6,-10 -5,-8 -4,-7 -3,-5 -8,-14 -3,-3 -3,-5 -4,-5 -3,-6 -7,-10 -5,-8 -4,-2 -2,-6 -9,-10 -6,-11 h -2 l -2,-4 -6,-8 -6,-7 -4,-6 -6,-7 -5,-6 -5,-4 -8,-10 -12,-12 -1,-2 h -2 v -2 l -15,-15 -8,-7 -14,-14 -8,-7 -7,-8 -6,-4 -5,-5 -7,-6 h -2 l -2,-5 -16,-13 -9,-7 -8,-5 -5,-5 -8,-6 -11,-7 -6,-4 h -2 v -2 l -16,-11 -3,-3 -7,-3 -8,-7 -7,-4 -8,-4 -8,-6 -11,-6 -10,-5 -7,-3 -4,-3 -8,-4 -5,-3 -12,-5 -6,-4 -8,-3 -5,-3 -6,-2 -6,-5 h -2 v 2 h -2 v -2 l -8,-4 h -5 l 1,-4 -6,-1 -2,1 -6,-5 -4,1 -3,-3 -7,-3 h -7 l -6,-3 -11,-3 -7,-3 -11,-3 -7,-3 -20,-5 -3,-2 -9,-2 -8,-3 -10,-2 -11,-3 -7,-1 -6,-3 -16,-4 h -8 l -4,-2 -16,-2 -2,-1 -11,-1 -7,-2 -16,-2 h -7 l -7,-1 h -5 l -5,-2 h -16 l -13,-1 -16,-1 -18,-1 z"
     fill="#f5ad2d"
     id="path4" />
  <path
     d="m 1685,352 h 3 l 10,14 12,17 13,20 13,21 15,27 12,23 8,16 12,26 16,40 10,28 12,39 9,34 9,43 6,33 6,46 4,47 1,18 1,36 v 29 l -1,38 -3,44 -4,38 -6,40 -7,36 -7,31 -8,30 -12,39 -11,31 -14,34 -13,29 -18,36 -14,24 -8,14 -11,17 -16,24 -13,18 -9,12 -12,15 -9,11 -12,14 -10,11 -7,8 -15,15 -5,6 -8,7 -17,17 -8,7 -10,9 -17,14 -14,11 -13,10 -18,13 -14,10 -29,19 -20,12 -19,11 -24,13 -23,12 -33,15 -28,12 -39,15 -46,15 -36,10 -42,10 -41,8 -45,7 -36,4 -39,3 -49,2 h -31 l -51,-2 -48,-4 -40,-5 -43,-7 -47,-10 -40,-10 -39,-12 -36,-12 -44,-17 -27,-12 -34,-16 -19,-10 -24,-13 -20,-12 -21,-13 -28,-19 -19,-14 -16,-12 -17,-14 -11,-9 -10,-9 -8,-7 -10,-9 -17,-16 -15,-15 -7,-8 -15,-16 -9,-11 -13,-15 -13,-17 -15,-20 -16,-23 -6,-9 -1,-7 3,-1 4,4 6,8 7,11 11,16 10,13 12,14 14,15 4,5 5,5 5,4 5,5 v 2 l 3,1 5,6 11,9 7,6 v 2 l 4,2 11,9 8,6 v 2 l 4,2 13,10 10,8 11,8 14,10 15,10 26,17 20,12 24,14 35,18 37,17 39,16 48,17 39,12 37,10 41,9 37,7 39,6 48,5 32,2 27,1 h 55 l 44,-2 36,-3 42,-5 43,-7 50,-10 35,-9 42,-12 41,-14 34,-13 41,-18 29,-14 27,-14 13,-8 11,-6 20,-12 25,-16 23,-16 16,-12 13,-10 14,-11 5,-4 4,-4 7,-6 h 2 l 1,-3 h 2 v -2 l 4,-2 3,-4 h 2 v -2 l 5,-2 v -2 l 5,-4 4,-5 9,-7 2,-3 h 2 l 2,-4 6,-5 9,-11 4,-4 h 2 l 2,-5 4,-4 h 2 l 2,-4 9,-10 5,-5 4,-6 h 2 l 1,-4 h 2 l 2,-5 14,-16 3,-5 h 2 l 1,-4 13,-18 22,-33 13,-21 15,-27 17,-33 11,-23 12,-28 13,-33 12,-37 7,-24 6,-22 5,-22 4,-18 5,-29 3,-16 2,-15 3,-27 2,-15 2,-27 2,-40 v -63 l -1,-24 -2,-27 -4,-44 -4,-27 -6,-38 -7,-35 -4,-19 -3,-10 -5,-21 -10,-30 -8,-23 -7,-19 -8,-19 -11,-24 -16,-32 -16,-28 -8,-12 -10,-13 -6,-9 -1,-5 z"
     fill="#ee8e01"
     id="path6" />
  <path
     d="m 553,1138 h 13 l 10,4 18,10 29,15 28,13 29,12 30,11 34,11 34,9 33,7 39,6 38,4 17,1 h 28 l 31,-2 34,-4 41,-7 25,-5 10,-3 28,-8 36,-12 29,-11 32,-14 25,-12 22,-11 22,-12 6,-2 h 13 l 10,5 5,4 5,8 2,6 v 14 l -6,12 -14,15 -24,24 -11,9 -14,12 -14,10 -11,8 -20,13 -17,10 -22,12 -23,11 -30,12 -33,11 -30,8 -31,6 -29,4 -38,3 h -44 l -28,-2 -26,-3 -35,-6 -36,-9 -16,-5 -27,-9 -10,-4 -17,-8 -10,-4 -17,-9 -14,-7 v -2 l -6,-2 -10,-6 -11,-7 -15,-10 -11,-8 -18,-14 -14,-12 -5,-4 -5,-6 -8,-7 -14,-14 -11,-14 -4,-10 v -11 l 4,-10 7,-8 z"
     fill="#432a0f"
     id="path8" />
  <path
     d="m 1233,531 h 22 l 17,3 21,7 18,10 16,13 8,8 10,13 8,13 9,20 6,21 3,15 2,19 v 19 l -3,24 -5,21 -6,16 -6,10 -8,7 -8,4 -4,1 h -9 l -20,-2 -14,-1 h -59 l -21,2 -41,7 h -12 l -9,-3 -8,-5 -6,-7 -7,-14 -7,-22 -4,-21 -1,-8 v -38 l 4,-24 4,-15 6,-16 8,-16 8,-11 9,-11 10,-10 15,-11 15,-8 21,-7 9,-2 z"
     fill="#432a0f"
     id="path10" />
  <path
     d="m 616,531 h 22 l 17,3 18,6 14,7 13,9 10,9 10,10 12,17 8,16 7,18 5,21 3,22 v 28 l -3,21 -4,17 -6,18 -8,15 -5,5 -6,5 -8,3 h -12 l -45,-7 -20,-2 -27,-1 h -26 l -20,2 -18,2 -8,1 -16,-7 -5,-4 -7,-11 -6,-15 -5,-20 -3,-23 v -26 l 2,-19 4,-19 7,-21 8,-16 9,-14 11,-13 12,-11 15,-10 19,-9 17,-5 z"
     fill="#432a0f"
     id="path12" />
  <path
     d="m 586,578 h 12 l 11,4 9,6 7,9 4,10 v 16 l -5,14 -7,11 -9,9 -8,5 -12,4 -16,-1 -11,-5 -8,-7 -6,-12 -1,-4 v -18 l 4,-11 7,-11 9,-10 10,-6 z"
     fill="#965f12"
     id="path14" />
  <path
     d="m 1211,578 h 12 l 11,4 9,6 7,10 3,9 v 17 l -4,11 -5,9 -9,11 -10,7 -8,3 -6,1 h -9 l -9,-2 -10,-6 -7,-8 -5,-10 -1,-5 v -12 l 4,-14 6,-11 4,-5 10,-8 10,-5 z"
     fill="#965f12"
     id="path16" />
  <path
     d="m 1208,529 h 7 v 4 l -6,2 -10,3 v 2 l -17,8 -14,10 -12,11 -8,9 -10,14 -8,16 -7,19 -5,22 -2,14 v 38 l 4,25 7,23 6,14 7,9 8,5 9,3 h 12 l 41,-7 h 15 l 10,1 -1,2 -17,2 -16,6 h -12 l -7,4 -9,2 -2,2 -3,1 h -14 l -16,-4 -6,-4 v -2 h -2 l -3,-6 -3,-5 v -3 l -4,-2 -4,-7 -3,-7 -4,-12 -3,-10 -3,-19 v -54 l 2,-13 6,-25 8,-18 8,-14 7,-9 8,-10 8,-8 h 2 v -2 l 11,-8 16,-11 12,-6 z"
     fill="#fee433"
     id="path18" />
  <path
     d="m 1268,1132 4,1 1,4 -4,1 -1,3 -34,18 -30,15 -30,13 -33,13 -36,12 -27,8 -12,3 -13,3 -36,7 -34,5 -32,3 -18,1 h -28 l -10,-3 -1,-3 6,-1 5,-1 35,-1 42,-4 33,-5 28,-5 27,-6 24,-7 36,-12 21,-8 20,-8 11,-5 20,-9 16,-8 29,-15 12,-6 z"
     fill="#fee333"
     id="path20" />
  <path
     d="m 523,1169 3,3 v 3 l 5,1 7,11 12,14 15,15 7,6 5,5 7,6 8,7 8,6 7,5 v 2 l 5,2 8,6 21,14 15,9 6,3 v 2 l 7,2 4,3 19,9 7,4 13,5 10,5 43,15 44,11 35,6 36,4 28,2 v 3 l -4,1 -19,1 -19,-2 -4,-1 h -11 l -15,-4 -13,-1 -12,-3 -15,-2 -12,-3 -14,-3 -18,-5 -15,-5 -22,-8 -24,-10 -16,-8 -14,-8 -18,-10 -15,-10 -20,-14 -10,-8 -7,-5 v -2 l -5,-2 -5,-4 -14,-14 -11,-9 -22,-22 -8,-12 -3,-12 z"
     fill="#fee032"
     id="path22" />
  <path
     d="m 581,535 3,2 -5,2 v 2 l -19,10 -12,9 -13,12 -10,13 -8,13 -9,21 -6,21 -3,18 -1,12 v 26 l 3,23 5,20 6,15 6,9 v 2 l 22,11 h 11 l 2,2 -1,5 -9,4 -17,-1 -13,-5 -10,-17 -6,-12 -4,-9 -3,-17 -2,-26 v -17 l 2,-18 5,-31 7,-21 8,-16 10,-15 12,-14 4,-5 11,-8 10,-8 11,-7 10,-4 z"
     fill="#fee333"
     id="path24" />
  <path
     d="m 558,1130 h 10 l 13,5 35,18 21,10 15,7 33,14 17,7 7,3 7,2 9,3 5,3 11,2 5,2 9,3 11,2 3,2 13,2 v 4 h -3 v 2 l -9,1 -29,-8 -40,-13 -26,-10 -35,-15 -29,-14 -25,-13 -12,-7 -8,-3 h -13 l -12,6 -7,8 -1,2 -3,1 -6,9 -1,-4 3,-9 6,-9 8,-7 12,-5 z"
     fill="#fee333"
     id="path26" />
  <path
     d="m 1238,1247 h 2 v 4 l -6,4 -5,4 h -2 v 2 h -2 l -1,3 -9,6 -8,6 -5,1 -2,5 -3,3 -6,1 v 2 l -6,1 v 2 h -2 l -2,4 -10,6 -15,8 -7,2 v 2 l -7,2 -1,2 -11,4 -14,5 -3,2 -9,3 -22,7 -12,3 -4,2 -7,1 -8,3 -9,1 -6,2 -14,2 -6,2 -13,1 -7,2 -26,1 -18,2 h -22 l -13,-1 -3,-1 v -2 l 44,-1 v -2 l 38,-4 30,-5 34,-8 26,-8 22,-8 27,-11 29,-14 25,-14 33,-22 12,-9 z"
     fill="#fee133"
     id="path28" />
  <path
     d="m 755,638 4,2 1,3 1,18 2,6 -1,24 1,3 -1,13 -2,5 -1,14 -4,4 -3,-1 v 9 l -4,1 v -7 l 5,-26 1,-9 v -28 l -2,-17 v -12 z"
     fill="#fee133"
     id="path30" />
  <path
     d="m 731,770 h 3 l -2,4 -5,5 -3,2 -1,3 -6,4 h -7 l 1,1 v 1 l -14,1 h -7 l -9,-3 -8,-6 -6,-3 -5,-1 v -1 l 7,-1 h 9 l 25,4 h 12 l 9,-4 5,-4 h 2 z"
     fill="#fee132"
     id="path32" />
  <path
     d="m 285,226 h 3 l -2,5 -55,55 -6,5 -5,6 -5,3 h -2 l 1,-5 7,-7 7,-8 34,-34 8,-7 11,-10 z"
     fill="#ef9406"
     id="path34" />
  <path
     d="m 636,525 9,1 17,4 12,2 13,5 8,6 1,3 2,1 -1,1 3,3 v 2 l 2,3 -5,-1 -10,-7 -14,-7 -18,-6 -17,-3 -1,-1 -16,-2 1,-2 z"
     fill="#fee333"
     id="path36" />
  <path
     d="m 532,573 2,1 -9,11 -8,13 -9,21 -6,21 -3,18 -1,12 v 35 h -1 l -2,-8 -1,-6 1,-17 -3,-12 h 2 l 2,-15 3,-13 2,-7 3,-7 3,-14 2,-5 3,-3 4,-5 h 2 l 2,-5 8,-11 z"
     fill="#fccc32"
     id="path38" />
  <path
     d="m 708,554 5,3 12,11 4,6 -1,5 2,4 v 3 l -4,-1 -9,-12 -14,-14 v -2 h 4 z"
     fill="#fee233"
     id="path40" />
  <path
     d="m 1351,764 h 2 l -2,4 -2,-2 z m -3,3 1,3 -1,2 h -3 l -2,5 -5,3 h -3 l -1,4 -11,1 h -5 l -5,-6 -3,-5 8,1 4,1 h 8 l 9,-4 z"
     fill="#fee333"
     id="path42" />
  <path
     d="m 1127,609 2,1 -8,24 -4,22 -1,7 -1,36 -2,-2 -1,-4 v -18 l -1,-10 3,-18 4,-17 7,-19 z"
     fill="#fcc932"
     id="path44" />
  <path
     d="m 508,601 1,3 -2,7 -3,11 -3,6 -2,12 -2,7 -2,12 -1,3 -3,1 2,-17 3,-16 8,-22 z"
     fill="#ffe734"
     id="path46" />
  <path
     d="m 1373,694 4,2 v 12 l -2,5 -1,2 1,2 v 7 l -1,3 h -2 l -1,2 -2,-1 v -12 l 2,-15 z"
     fill="#fddf32"
     id="path48" />
  <path
     d="m 1318,555 7,2 v 2 h 2 l 2,2 1,2 4,1 4,3 v 2 h 2 l 2,3 -1,6 -4,-2 -11,-12 -7,-6 z"
     fill="#fee333"
     id="path50" />
  <path
     d="m 741,1211 12,1 h 2 v 2 h 2 v 2 l 8,1 6,1 1,3 2,1 -8,-1 -28,-8 z"
     fill="#fcca31"
     id="path52" />
  <path
     d="m 1372,711 3,6 v 7 l -1,3 h -2 l -1,2 -2,-1 v -12 l 1,-3 h 2 z"
     fill="#fee333"
     id="path54" />
  <path
     d="m 1240,527 h 18 l 10,4 v 1 h -13 v -2 h -9 l -6,-1 z"
     fill="#fee333"
     id="path56" />
  <path
     d="m 1291,539 8,1 4,1 5,5 v 2 l 5,2 -4,1 -16,-9 -2,-1 z"
     fill="#fede33"
     id="path58" />
  <path
     d="m 751,624 4,1 1,6 -2,4 h -5 v -9 h 2 z"
     fill="#fee634"
     id="path60" />
  <path
     d="m 745,743 h 2 v 6 l -5,10 -3,2 1,-6 z"
     fill="#fddb31"
     id="path62" />
  <path
     d="m 496,675 h 1 l 1,30 h -1 l -2,-8 -1,-6 z"
     fill="#fdce34"
     id="path64" />
  <path
     d="m 1254,1234 3,1 -9,9 -4,3 h -3 l 2,-4 z"
     fill="#fcd82f"
     id="path66" />
  <path
     d="m 532,573 2,1 -9,11 -4,7 -2,-1 2,-4 6,-9 z"
     fill="#fcca32"
     id="path68" />
  <path
     d="m 1308,1153 6,1 1,5 -3,3 h -2 z"
     fill="#ffe734"
     id="path70" />
  <path
     d="m 1308,773 h 10 l 13,2 -1,2 h -8 l -14,-3 z"
     fill="#f9bd2e"
     id="path72" />
  <path
     d="m 790,1218 7,1 v 4 l -6,1 -3,-4 z"
     fill="#ffe734"
     id="path74" />
  <path
     d="m 1318,555 7,2 v 2 h 2 l 1,6 -8,-6 z"
     fill="#fddc32"
     id="path76" />
  <path
     d="m 651,773 14,1 7,1 -3,2 h -7 l -4,-1 -7,-2 z"
     fill="#f9bd2b"
     id="path78" />
  <path
     d="m 569,1236 4,2 2,2 1,5 -8,-5 z"
     fill="#ffe734"
     id="path80" />
  <path
     d="m 1677,1349 1,4 -7,11 -1,-3 5,-10 z"
     fill="#f8bc30"
     id="path82" />
  <path
     d="m 765,1217 6,1 1,3 2,1 -8,-1 -4,-2 z"
     fill="#fbc930"
     id="path84" />
  <path
     d="m 1127,609 2,1 -4,11 h -3 l 3,-10 z"
     fill="#fcc932"
     id="path86" />
  <path
     d="m 728,1206 5,2 2,2 3,2 -7,-1 -9,-3 4,-1 2,1 z"
     fill="#fbc630"
     id="path88" />
  <path
     d="m 1366,730 3,1 v 6 l -3,3 -1,-6 z"
     fill="#fddf33"
     id="path90" />
</svg>
